<svg width="24" height="24" viewBox="0 0 24 24" fill="none" xmlns="http://www.w3.org/2000/svg">
<path d="M11.3202 1.35938C5.06825 1.35938 0 6.42762 0 12.6796C0 18.9316 5.06825 23.9999 11.3202 23.9999C17.5722 23.9999 22.6405 18.9316 22.6405 12.6796H11.3202V1.35938Z" fill="#FFDD95"/>
<mask id="mask0_1305_732" style="mask-type:luminance" maskUnits="userSpaceOnUse" x="0" y="1" width="23" height="24">
<path d="M11.3202 1.36182C5.06825 1.36182 0 6.43006 0 12.6821C0 18.9341 5.06825 24.0023 11.3202 24.0023C17.5722 24.0023 22.6405 18.9341 22.6405 12.6821H11.3202V1.36182Z" fill="white"/>
</mask>
<g mask="url(#mask0_1305_732)">
<path d="M11.3179 21.7369C16.3195 21.7369 20.3741 17.6823 20.3741 12.6807C20.3741 7.67911 16.3195 3.62451 11.3179 3.62451C6.31632 3.62451 2.26172 7.67911 2.26172 12.6807C2.26172 17.6823 6.31632 21.7369 11.3179 21.7369Z" fill="#ED9111"/>
</g>
<path d="M13.1355 19.9257C14.1358 19.9257 14.9467 19.1148 14.9467 18.1145C14.9467 17.1141 14.1358 16.3032 13.1355 16.3032C12.1351 16.3032 11.3242 17.1141 11.3242 18.1145C11.3242 19.1148 12.1351 19.9257 13.1355 19.9257Z" fill="#E43535"/>
<path d="M8.15921 9.05817C8.90945 9.05817 9.51764 8.44998 9.51764 7.69974C9.51764 6.9495 8.90945 6.34131 8.15921 6.34131C7.40897 6.34131 6.80078 6.9495 6.80078 7.69974C6.80078 8.44998 7.40897 9.05817 8.15921 9.05817Z" fill="#E43535"/>
<path d="M7.25296 18.5674C8.0032 18.5674 8.61139 17.9593 8.61139 17.209C8.61139 16.4588 8.0032 15.8506 7.25296 15.8506C6.50272 15.8506 5.89453 16.4588 5.89453 17.209C5.89453 17.9593 6.50272 18.5674 7.25296 18.5674Z" fill="#E43535"/>
<path d="M23.9999 11.3202C23.9999 5.06825 18.9317 0 12.6797 0V11.3202H23.9999Z" fill="#FFDD95"/>
<mask id="mask1_1305_732" style="mask-type:luminance" maskUnits="userSpaceOnUse" x="12" y="0" width="12" height="12">
<path d="M23.996 11.3202C23.996 5.06825 18.9278 0 12.6758 0V11.3202H23.996Z" fill="white"/>
</mask>
<g mask="url(#mask1_1305_732)">
<path d="M12.6773 20.3756C17.6789 20.3756 21.7335 16.321 21.7335 11.3194C21.7335 6.31778 17.6789 2.26318 12.6773 2.26318C7.67569 2.26318 3.62109 6.31778 3.62109 11.3194C3.62109 16.321 7.67569 20.3756 12.6773 20.3756Z" fill="#ED9111"/>
</g>
<path d="M17.6592 9.96295C18.4095 9.96295 19.0176 9.35476 19.0176 8.60452C19.0176 7.85428 18.4095 7.24609 17.6592 7.24609C16.909 7.24609 16.3008 7.85428 16.3008 8.60452C16.3008 9.35476 16.909 9.96295 17.6592 9.96295Z" fill="#E43535"/>
<path d="M5.43296 12.6784C5.93312 12.6784 6.33858 12.273 6.33858 11.7728C6.33858 11.2726 5.93312 10.8672 5.43296 10.8672C4.9328 10.8672 4.52734 11.2726 4.52734 11.7728C4.52734 12.273 4.9328 12.6784 5.43296 12.6784Z" fill="#E43535"/>
<path d="M9.50718 14.0378C10.0073 14.0378 10.4128 13.6323 10.4128 13.1322C10.4128 12.632 10.0073 12.2266 9.50718 12.2266C9.00702 12.2266 8.60156 12.632 8.60156 13.1322C8.60156 13.6323 9.00702 14.0378 9.50718 14.0378Z" fill="#E43535"/>
<path d="M16.543 15.4929C16.543 15.4929 16.4653 14.8248 14.6128 15.1588M11.3629 14.6543C11.3629 14.6543 10.3647 15.216 10.3574 15.9185M8.40331 19.4791C8.40331 19.4791 9.40898 18.7515 10.0725 19.4949M4.51172 14.404C4.51172 14.404 6.24856 14.0921 6.69287 14.5766" stroke="#ECECEC" stroke-width="0.556709" stroke-linecap="round"/>
<path d="M7.64745 10.7216C7.64745 10.7216 5.69546 10.5844 5.73095 8.91381M16.0258 7.24609C16.0258 7.24609 14.5413 7.8076 14.4892 8.48852" stroke="#FFDD95" stroke-width="0.556709" stroke-linecap="round"/>
<path d="M14.0156 3.80978C14.0156 3.80978 14.902 3.32879 15.6289 4.60223" stroke="#ECECEC" stroke-width="0.556709" stroke-linecap="round"/>
</svg>
