<svg width="24" height="24" viewBox="0 0 24 24" fill="none" xmlns="http://www.w3.org/2000/svg">
<path d="M7.47433 4.99811C7.47433 4.99811 4.70001 3.36859 4.41505 2.48874C4.26442 2.02046 4.44558 1.53119 4.38452 1.05451C4.31124 0.468644 3.87158 0.208258 3.35051 0.0591658C3.07572 -0.0185301 2.77447 -0.0290296 2.5119 0.0843645C1.79746 0.388848 2.14145 1.14691 1.67126 1.56689C1.34355 1.85877 0.891681 1.83987 0.543619 2.07086C0.162989 2.32285 -0.0507332 2.83312 0.0103303 3.2888C0.152812 4.36184 1.28656 4.41434 2.11295 4.47103C3.59273 4.57183 4.25221 6.44703 4.72444 7.37518C5.19666 8.30333 6.16554 7.0308 6.6398 6.39663C7.11406 5.76457 7.47433 4.99811 7.47433 4.99811Z" fill="url(#paint0_radial_1305_760)"/>
<path opacity="0.2" d="M2.94732 0.632897C3.02467 0.632897 3.10609 0.645496 3.18954 0.668595C3.74115 0.826087 3.76557 1.01928 3.77982 1.13687C3.79611 1.26916 3.78186 1.43085 3.76761 1.60515C3.74115 1.91173 3.70858 2.29391 3.83681 2.69079C4.10753 3.53074 5.64226 4.60169 6.65795 5.23585C6.52565 5.47314 6.3506 5.75873 6.15723 6.01701C5.65651 6.68688 5.38579 6.94097 5.24128 7.03336C5.18835 6.92627 5.13136 6.80657 5.0703 6.67848C4.58993 5.66003 3.78593 3.95912 2.15553 3.84573L2.10057 3.84153C1.12356 3.77433 0.677794 3.66724 0.61673 3.20526C0.588234 2.98267 0.700184 2.71809 0.875232 2.60259C0.956651 2.548 1.08081 2.5102 1.22533 2.4682C1.47773 2.3926 1.79119 2.29811 2.07411 2.04402C2.43235 1.72274 2.51581 1.32166 2.57483 1.02768C2.63997 0.714792 2.65625 0.708493 2.74581 0.668595C2.80484 0.645496 2.87201 0.632897 2.94732 0.632897ZM2.94732 0.00292969C2.79873 0.00292969 2.65218 0.0281283 2.51581 0.0869252C1.80136 0.391409 2.14535 1.14947 1.67517 1.56945C1.34746 1.86133 0.895587 1.84243 0.547525 2.07342C0.166895 2.32541 -0.046827 2.83568 0.0142366 3.29136C0.156718 4.3644 1.29046 4.4169 2.11686 4.4736C3.59663 4.57439 4.25612 6.44959 4.72834 7.37774C4.84843 7.61083 4.99906 7.70533 5.16393 7.70533C5.65651 7.70533 6.2875 6.87377 6.64167 6.39919C7.11593 5.76293 7.47417 4.99857 7.47417 4.99857C7.47417 4.99857 4.69985 3.36905 4.41488 2.4892C4.26426 2.02092 4.44542 1.53165 4.38435 1.05497C4.31108 0.469105 3.87142 0.208719 3.35034 0.0596268C3.22211 0.0260286 3.0837 0.00292969 2.94732 0.00292969Z" fill="#424242"/>
<path d="M10.6683 6.34972C11.8997 6.692 16.2108 7.42487 16.8276 7.71885C17.4443 8.01284 18.7226 8.6953 18.7226 8.6953L22.1808 10.8939C22.1808 10.8939 23.2229 11.5302 23.6972 13.5334C24.1715 15.5367 23.9822 16.6623 23.8397 17.3447C23.6972 18.0293 23.8397 18.0293 23.1293 19.495C22.4189 20.9608 21.045 22.6239 19.7179 23.0627C18.3908 23.5016 18.2971 23.6003 17.6336 23.7956C16.97 23.9909 13.9392 24.2345 12.8014 23.5016C11.6636 22.7688 10.0536 22.1325 9.48568 20.1292C8.91779 18.1259 8.15653 14.2684 7.39934 12.557C6.64215 10.8456 5.20105 8.85279 4.72679 8.21862C4.25253 7.58446 4.19961 6.53451 5.54097 5.48877C6.22489 4.9554 7.17137 4.35483 7.6436 4.40312C8.11582 4.45142 9.43683 6.00744 10.6683 6.34972Z" fill="url(#paint1_radial_1305_760)"/>
<path opacity="0.2" d="M7.55607 5.03343C7.69245 5.10693 7.9998 5.35892 8.22777 5.54581C8.86894 6.07078 9.66887 6.72594 10.5095 6.95903C11.0591 7.11232 12.148 7.32861 13.3022 7.5596C14.4888 7.79689 16.2821 8.15387 16.5711 8.29036C17.1268 8.55495 18.2564 9.15762 18.4213 9.24371L21.8612 11.4318C21.8958 11.4549 22.7059 12.0009 23.1028 13.6829C23.5669 15.6463 23.3471 16.7046 23.2413 17.2128C23.2067 17.385 23.1863 17.5152 23.17 17.6307C23.1232 17.952 23.0906 18.164 22.5818 19.214C21.733 20.9653 20.4038 22.1727 19.5306 22.4646C18.8325 22.6956 18.4579 22.8384 18.1872 22.9434C17.9328 23.04 17.7639 23.1051 17.4667 23.1933C17.2143 23.2668 16.3818 23.3718 15.474 23.3718C14.3748 23.3718 13.5179 23.2269 13.1251 22.9728C12.9337 22.8489 12.7363 22.7334 12.5287 22.6095C11.5211 22.0131 10.479 21.3979 10.0699 19.9573C9.88463 19.3043 9.67498 18.4349 9.45311 17.5152C8.99921 15.6295 8.48424 13.4918 7.95502 12.297C7.18562 10.5582 5.77912 8.59695 5.21123 7.83469C5.11353 7.70239 5.00362 7.48611 5.04025 7.20052C5.09114 6.81204 5.39035 6.39416 5.90939 5.99098C6.71543 5.36312 7.33624 5.06283 7.55607 5.03343ZM7.5866 4.40137C7.09809 4.40137 6.19842 4.97674 5.54097 5.48911C4.19961 6.53485 4.25253 7.5827 4.72679 8.21897C5.20105 8.85523 6.64215 10.848 7.39934 12.5573C8.15653 14.2687 8.91575 18.1283 9.48364 20.1316C10.0515 22.1349 11.6636 22.7712 12.7994 23.5041C13.3836 23.8799 14.4664 23.9996 15.4719 23.9996C16.4245 23.9996 17.3079 23.8925 17.6316 23.798C18.2951 23.6028 18.3887 23.5041 19.7159 23.0652C21.043 22.6263 22.4169 20.9632 23.1273 19.4975C23.8376 18.0318 23.6952 18.0318 23.8376 17.3472C23.9801 16.6626 24.1694 15.5392 23.6952 13.5359C23.2209 11.5326 22.1788 10.8963 22.1788 10.8963L18.7226 8.69564C18.7226 8.69564 17.4443 8.01108 16.8276 7.71919C16.2108 7.42731 11.9018 6.69235 10.6683 6.35006C9.43683 6.00778 8.11786 4.45176 7.6436 4.40347C7.62528 4.40137 7.60696 4.40137 7.5866 4.40137Z" fill="#424242"/>
<path d="M21.988 16.2322C22.0776 16.4632 22.1651 16.6921 22.2547 16.9231C22.0756 16.8958 21.8985 16.8685 21.7194 16.8412C21.7112 16.5787 21.7845 16.3141 21.9249 16.0957" fill="#DF5923"/>
<path d="M20.9703 18.8242C21.0354 18.9838 21.1005 19.1455 21.1657 19.3051C20.9845 19.2715 20.8135 19.1728 20.6914 19.0321C20.7342 18.8998 20.84 18.7885 20.9662 18.7402" fill="#DF5923"/>
<path d="M22.4674 20.1533C22.5794 20.3591 22.6913 20.5628 22.8033 20.7686C22.6811 20.8988 22.443 20.8757 22.3473 20.7245C22.2517 20.5733 22.3249 20.3381 22.4878 20.2751" fill="#DF5923"/>
<path d="M20.493 22.4697C20.6579 22.6377 20.5785 22.98 20.3567 23.0535C20.2671 22.8918 20.2569 22.686 20.3282 22.5138C20.3892 22.5621 20.4503 22.6104 20.5093 22.6566" fill="#DF5923"/>
<path d="M18.2563 23.376L17.2305 23.6028C17.5093 23.7855 17.9164 23.712 18.12 23.4432" fill="#DF5923"/>
<path d="M22.4609 14.6309C22.7154 14.6708 22.9454 14.8513 23.0512 15.0928C22.866 15.2167 22.5953 14.9437 22.7093 14.7485" fill="#DF5923"/>
<path d="M20.5769 16.2253C20.638 16.3114 20.697 16.3975 20.7581 16.4836C20.6665 16.5781 20.4833 16.5361 20.4365 16.4101C20.3897 16.2841 20.5037 16.1287 20.6339 16.1392" fill="#DF5923"/>
<path d="M22.872 16.376C22.9493 16.4705 22.9677 16.6112 22.9188 16.7246C22.813 16.775 22.6725 16.6679 22.6888 16.5503C22.7051 16.4306 22.8679 16.3676 22.9554 16.4453" fill="#DF5923"/>
<path d="M21.6445 10.9013C21.8338 10.809 22.0883 10.9013 22.1778 11.0945C21.9417 11.2457 21.5916 10.9244 21.7117 10.6641" fill="#DF5923"/>
<path d="M19.0273 10.2822C19.2981 10.3851 19.5301 10.5846 19.6787 10.8408L19.0803 10.8345C19.0111 10.6938 19.121 10.4964 19.2736 10.488" fill="#DF5923"/>
<path d="M20.7674 12.3144C20.8936 12.4529 21.0218 12.5915 21.148 12.7301C20.9079 12.8708 20.5679 12.5684 20.6656 12.3018" fill="#DF5923"/>
<path d="M16.1328 7.54362C16.373 7.43023 16.6417 7.31263 16.8961 7.38613C17.1526 7.45962 17.3256 7.82711 17.1343 8.0161C17.004 8.14419 16.7821 8.11269 16.6417 7.9993C16.5012 7.8859 16.4198 7.70951 16.3465 7.54152" fill="#DF5923"/>
<path d="M15.8242 9.04658C16.0298 8.94789 16.3066 9.13688 16.2985 9.37207C16.1682 9.36787 16.0237 9.35527 15.9362 9.25657C15.8486 9.15788 15.8975 8.94789 16.0257 8.95839" fill="#DF5923"/>
<path d="M16.017 10.9139C15.8765 10.8215 15.7381 10.7291 15.5977 10.6367C15.6526 10.8719 15.7055 11.1071 15.7605 11.3402C15.8908 11.1974 16.021 11.0567 16.1513 10.9139" fill="#DF5923"/>
<path d="M13.3735 11.8238C13.461 11.9561 13.5485 12.0884 13.636 12.2207C13.5261 12.3215 13.3388 12.3089 13.2432 12.1934C13.1475 12.0779 13.1618 11.8847 13.2737 11.7881" fill="#DF5923"/>
<path d="M15.5728 15.3182C15.5952 15.44 15.6176 15.5639 15.64 15.6857C15.5016 15.8327 15.2186 15.7697 15.1515 15.5765C15.0843 15.3833 15.2573 15.1481 15.4568 15.1649C15.6542 15.1796 15.7947 15.4358 15.7051 15.6185" fill="#DF5923"/>
<path d="M14.391 17.843C14.4521 17.9963 14.5152 18.1496 14.5763 18.3029C14.3829 18.4247 14.0898 18.2189 14.1285 17.9879C14.1671 17.7569 14.5111 17.6666 14.6536 17.8493" fill="#DF5923"/>
<path d="M15.9248 21.7341C15.8108 21.8579 15.5625 21.7572 15.5625 21.585C15.5625 21.4128 15.8088 21.312 15.9248 21.4359" fill="#DF5923"/>
<path d="M11.6642 18.5063C11.8128 18.5 11.9023 18.7247 11.8046 18.8381C11.7049 18.9515 11.4932 18.899 11.4423 18.7562C11.3914 18.6134 11.5013 18.4391 11.6479 18.416" fill="#DF5923"/>
<path d="M10.629 13.4805C10.8427 13.8333 11.0544 14.1881 11.2681 14.5409C11.0178 14.5871 10.745 14.4611 10.6127 14.2364C10.4804 14.0117 10.4967 13.7052 10.6514 13.4952" fill="#DF5923"/>
<path d="M18.944 15.8037C19.0173 15.8919 19.0926 15.9801 19.1659 16.0683C18.9135 16.1943 18.5756 16.0809 18.4453 15.8268C18.6081 15.8226 18.771 15.8184 18.9359 15.8121" fill="#DF5923"/>
<path d="M20.5611 14.0109C20.7789 14.0802 20.9315 14.3217 20.9051 14.5548C20.5957 14.4666 20.4288 14.0445 20.5896 13.7568" fill="#DF5923"/>
<path d="M11.0065 6.87007C11.1816 6.78397 11.4197 6.96246 11.3933 7.16195C11.2304 7.27744 10.976 7.21655 10.8803 7.03806C10.7847 6.85957 10.8661 6.60548 11.0452 6.52148" fill="#DF5923"/>
<path d="M13.1016 7.83594C13.5188 7.93463 13.8934 8.20972 14.1234 8.5835C13.8974 8.6255 13.645 8.66119 13.4578 8.5268C13.2705 8.39241 13.2746 8.01233 13.5025 7.97663" fill="#DF5923"/>
<path d="M8.21484 8.25488C8.47742 8.53417 8.68707 8.86595 8.83159 9.22713C8.65247 9.26703 8.45299 9.18303 8.35325 9.02554C8.25352 8.86805 8.25962 8.64546 8.36954 8.49427" fill="#DF5923"/>
<path d="M6.66953 9.51317L6.71838 9.99824C6.54537 9.96045 6.41307 9.77566 6.43138 9.59297C6.4497 9.41027 6.61254 9.25698 6.79166 9.25488" fill="#DF5923"/>
<path d="M7.47266 5.80469C7.90417 5.91598 8.30516 6.15537 8.61454 6.48715C8.39064 6.49765 8.13825 6.49975 7.97338 6.34226C7.80851 6.18477 7.85939 5.81729 8.08533 5.81099" fill="#DF5923"/>
<path d="M11.5545 7.95748C11.754 8.12337 11.9514 8.29136 12.1509 8.45726C11.9942 8.57065 11.7601 8.54965 11.6258 8.40896C11.4914 8.26827 11.4731 8.02678 11.585 7.86719" fill="#DF5923"/>
<path d="M10.7266 10.9131C10.869 11.2302 11.0115 11.5452 11.154 11.8622C10.9199 11.6375 10.7856 11.3058 10.7937 10.9761C10.8833 11.0244 10.9749 11.0727 11.0644 11.121" fill="#DF5923"/>
<path d="M9.09832 14.1333C9.1431 14.3412 9.18788 14.547 9.23062 14.7549C9.03726 14.9187 8.68919 14.7906 8.64238 14.5365C8.59353 14.2824 8.87035 14.0283 9.1085 14.106" fill="#DF5923"/>
<path d="M9.59325 16.7181C9.70316 17.0793 9.81511 17.4405 9.92503 17.8038C9.51387 17.6274 9.39378 16.9785 9.71334 16.6572" fill="#DF5923"/>
<defs>
<radialGradient id="paint0_radial_1305_760" cx="0" cy="0" r="1" gradientUnits="userSpaceOnUse" gradientTransform="translate(3.03501 2.11559) rotate(180) scale(3.69679 3.81382)">
<stop stop-color="#FFE7CC"/>
<stop offset="0.6207" stop-color="#D1B798"/>
</radialGradient>
<radialGradient id="paint1_radial_1305_760" cx="0" cy="0" r="1" gradientUnits="userSpaceOnUse" gradientTransform="translate(16.2579 11.2842) rotate(133.678) scale(11.3599 11.8635)">
<stop stop-color="#FF9137"/>
<stop offset="0.1554" stop-color="#F58631"/>
<stop offset="0.4321" stop-color="#DC6722"/>
<stop offset="0.734" stop-color="#BA3F0E"/>
<stop offset="0.9606" stop-color="#C33F0E"/>
</radialGradient>
</defs>
</svg>
