<svg width="64" height="72" viewBox="0 0 64 72" fill="none" xmlns="http://www.w3.org/2000/svg">
<path d="M27.9289 20.6364C27.9289 20.6364 27.5156 18.2881 30.2227 16.8154C30.8426 16.4771 30.9666 16.1189 31.3592 16.0194C31.7312 15.9199 31.8965 16.2184 31.8552 16.5766C31.7725 17.3328 31.9378 18.4672 33.5703 18.5468H33.6943C32.5578 20.0991 27.9289 20.6364 27.9289 20.6364Z" fill="url(#paint0_radial_1305_798)"/>
<path d="M33.7996 39.9407H29.1707C28.2407 39.9407 27.4761 39.2839 27.3315 38.4083L25.9883 29.2539H36.9613L35.618 38.4083C35.4941 39.2839 34.7088 39.9407 33.7996 39.9407Z" fill="url(#paint1_linear_1305_798)"/>
<path opacity="0.2" d="M36.6303 31.562C36.5683 31.562 36.5063 31.5819 36.4443 31.6217L34.7704 33.4128L33.1379 31.6615L34.0265 30.7062C34.1092 30.6266 34.0885 30.5072 34.0058 30.4276C33.9232 30.348 33.7992 30.3679 33.7165 30.4475L32.8693 31.363L32.022 30.4475C31.9394 30.3679 31.8154 30.3679 31.7327 30.4276C31.6501 30.5072 31.6501 30.6266 31.712 30.7062L32.6006 31.6615L31.2161 33.154L29.7076 31.5421L29.9969 31.2436C30.0795 31.164 30.0589 31.0446 29.9762 30.965C29.8936 30.8853 29.7696 30.9052 29.6869 30.9849L29.4183 31.2436L28.695 30.4674C28.6123 30.3878 28.4883 30.3878 28.4057 30.4475C28.323 30.5271 28.323 30.6465 28.385 30.7261L29.1496 31.5421L27.5171 33.2934L26.6079 32.3182C26.5665 32.2585 26.4839 32.2386 26.4219 32.2585L26.5045 32.8157L27.2485 33.6118L26.7112 34.1889L26.7732 34.6466C26.8145 34.6466 26.8558 34.6267 26.8972 34.5869L27.5171 33.9302L29.0256 35.562L27.5171 37.1939L27.2691 36.9352C27.2278 36.8755 27.1451 36.8556 27.0831 36.8755L27.1658 37.4327L27.2278 37.4924L27.1865 37.5322L27.2485 37.99C27.2898 37.99 27.3311 37.9701 27.3725 37.9303L27.5171 37.7909L29.1496 39.5422L28.8603 39.8606C28.8396 39.9004 28.819 39.9203 28.819 39.9601C28.943 39.98 29.067 39.9999 29.191 39.9999H29.2943L29.4389 39.8407L29.5836 39.9999H30.0382C30.0382 39.9402 30.0382 39.8805 29.9969 39.8407L29.7076 39.5422L31.2161 37.9104L32.6006 39.4029L32.1667 39.8606C32.1253 39.9004 32.1047 39.9402 32.1047 39.9999H32.58L32.8486 39.7014L33.1173 39.9999H33.5925C33.5925 39.9601 33.5719 39.9004 33.5512 39.8606L33.1173 39.4029L34.7498 37.6516L35.473 38.4278C35.5144 38.4676 35.5557 38.4875 35.597 38.4875C35.597 38.4676 35.597 38.4676 35.597 38.4477L35.659 38.0298L35.0391 37.3531L35.907 36.4178L35.9896 35.8606C35.9277 35.8606 35.845 35.8606 35.8037 35.9203L34.7704 37.0347L33.3859 35.5421L34.7704 34.0496L35.9483 35.3033C35.9896 35.3431 36.031 35.363 36.0723 35.363L36.1343 34.9053L35.0597 33.7312L36.5476 32.1391L36.6303 31.562ZM27.8064 33.572L29.4389 31.8207L30.9475 33.4526L29.3356 35.2038L27.8064 33.572ZM29.4183 39.1641L27.7857 37.4128L29.2943 35.781L30.9268 37.5322L29.4183 39.1641ZM29.5836 35.5023L31.2161 33.7511L32.8279 35.5023L31.2161 37.2536L29.5836 35.5023ZM34.5018 37.2934L32.8899 39.0447L31.5054 37.5521L33.1379 35.8009L34.5018 37.2934ZM33.1173 35.2038L31.4847 33.4526L32.8693 31.96L34.5018 33.7113L33.1173 35.2038Z" fill="#795649"/>
<path opacity="0.2" d="M36.5066 29.6314L35.2254 38.3281C35.1221 39.0047 34.5022 39.5221 33.7996 39.5221H29.1707C28.468 39.5221 27.8481 39.0047 27.7448 38.3281L26.4636 29.6314H36.5066ZM36.9819 29.2334H25.9883L27.3315 38.3878C27.4761 39.2634 28.2407 39.9202 29.1707 39.9202H33.7996C34.7088 39.9202 35.4941 39.2634 35.6387 38.3878L36.9819 29.2334Z" fill="#434343"/>
<path d="M37.1451 31.9206H25.8208C25.3662 31.9206 24.9735 31.5425 24.9735 31.0648L24.6016 27.3633H38.3849L37.9923 31.0648C37.9716 31.5425 37.5997 31.9206 37.1451 31.9206Z" fill="url(#paint2_linear_1305_798)"/>
<path opacity="0.2" d="M37.9097 27.7613L37.5584 31.025V31.0648C37.5584 31.3236 37.3724 31.5226 37.1244 31.5226H25.8208C25.5935 31.5226 25.3868 31.3236 25.3868 31.0648C25.3868 31.0449 25.3868 31.0449 25.3868 31.025L25.0562 27.7613H37.9097ZM38.3643 27.3633H24.6016L24.9942 31.0648C24.9942 31.5425 25.3662 31.9206 25.8414 31.9206H37.1657C37.6203 31.9206 38.013 31.5425 38.013 31.0648C37.9923 31.0648 38.3643 27.3633 38.3643 27.3633Z" fill="#434343"/>
<path d="M36.5884 28.4578L26.3594 28L26.9173 24.4776L37.415 23.4229C38.9442 23.7612 39.6881 25.5522 39.4608 26.5871C38.9649 28.7961 36.5884 28.4578 36.5884 28.4578Z" fill="url(#paint3_radial_1305_798)"/>
<path d="M33.5891 21.1334L29.0015 22.1086C27.2657 22.3673 26.9144 20.3175 27.7616 19.223C28.1542 18.7055 28.8568 18.3672 29.5594 18.2677L31.8946 17.9095C32.7625 17.7702 33.6511 18.1483 34.1057 18.8448C34.767 19.9195 35.0356 20.6558 33.5891 21.1334Z" fill="url(#paint4_radial_1305_798)"/>
<path d="M35.3473 24.4769L27.536 25.7506C25.2836 26.0292 24.4776 23.8003 25.5109 22.0291C25.9035 21.3525 26.6474 20.8749 27.4947 20.7555L33.7768 19.84C34.8513 19.6808 35.9672 20.1187 36.5872 20.9147L36.6698 21.0341C37.8064 22.5665 37.3518 24.2182 35.3473 24.4769Z" fill="url(#paint5_radial_1305_798)"/>
<path d="M38.4871 24.1991L38.4458 24.1394C37.8879 23.3035 36.834 22.8657 35.7594 23.005L25.8197 24.3782C24.9724 24.4976 24.2078 24.9553 23.8152 25.6519C23.0919 26.9454 23.7738 28.3783 25.0137 28.9355C25.4684 29.1345 25.5923 29.0549 25.923 29.4529C26.1503 29.7315 26.3363 29.9703 26.7082 30.03C27.2455 30.0897 27.4728 29.9106 27.5968 29.6121C27.6795 29.4131 27.7208 29.1743 27.7621 29.1146C28.1134 28.3584 28.9814 28.836 28.9607 29.4529L28.9194 29.831C28.8987 30.2489 29.2293 30.647 29.684 30.7067C30.2006 30.7664 30.6552 30.4281 30.6759 29.9504L30.7379 29.1544C30.7585 28.7763 31.0478 28.4778 31.4611 28.4181C31.4611 28.4181 32.1224 28.1793 33.011 28.1395C34.6642 28.04 35.3254 28.3584 35.5527 28.7763C35.7594 29.1345 36.1107 29.3932 36.5447 29.4529C37.3919 29.5922 38.1565 29.0151 38.1978 28.239V28.2191C38.2392 27.5225 38.4458 26.8658 38.7351 26.229C39.0038 25.6319 38.9624 24.8956 38.4871 24.1991Z" fill="url(#paint6_radial_1305_798)"/>
<path opacity="0.2" d="M31.4416 16.4175C31.4416 16.4574 31.4623 16.4972 31.4416 16.5768C31.3796 17.1539 31.4623 17.6713 31.6896 18.0693C31.7516 18.1887 31.8962 18.2683 32.0615 18.2683H32.1029H32.2475C32.8675 18.2683 33.4461 18.5668 33.7767 19.0445C33.942 19.3231 34.1487 19.6614 34.2107 19.9201C34.252 20.0793 34.3967 20.1987 34.562 20.2186C35.2439 20.2982 35.8639 20.6365 36.2565 21.154L36.3391 21.2734C36.7938 21.8704 36.9797 22.5271 36.8144 23.0445C36.7524 23.2435 36.8558 23.4426 37.0624 23.5222C37.331 23.6217 37.579 23.7809 37.7857 23.96C37.8063 23.9799 37.827 23.9998 37.8477 24.0197C38.8189 24.5769 39.2115 25.8307 39.0462 26.4874C38.9016 27.1441 38.5503 27.5819 37.9923 27.8406C37.8477 27.9003 37.765 28.0396 37.7443 28.179V28.2188V28.2387C37.7237 28.7163 37.2897 29.0745 36.7524 29.0745C36.6904 29.0745 36.6284 29.0745 36.5665 29.0546C36.2771 29.0148 36.0085 28.8357 35.8639 28.577C35.7192 28.3382 35.5126 28.1392 35.2232 27.9998C35.1819 27.9799 35.1199 27.96 35.0579 27.96L32.1855 27.8207H32.1649C32.1442 27.8207 32.1235 27.8207 32.0822 27.8207C31.6896 27.9003 31.4003 27.9799 31.2969 28.0198C30.7183 28.1193 30.305 28.577 30.2637 29.1143L30.2017 29.9103C30.2017 30.1292 29.9951 30.2884 29.7471 30.2884C29.7264 30.2884 29.7058 30.2884 29.6851 30.2884C29.4578 30.2486 29.2718 30.0496 29.2925 29.8307L29.3338 29.4725C29.3338 29.4526 29.3338 29.4526 29.3338 29.4327C29.3338 29.1342 29.2098 28.8357 28.9825 28.6168C28.7758 28.4178 28.5072 28.2984 28.2386 28.2984C27.8459 28.2984 27.5153 28.5173 27.3293 28.9153C27.3086 28.975 27.288 29.0347 27.2673 29.1342C27.2467 29.2337 27.2053 29.3531 27.164 29.4327C27.1227 29.5521 27.0813 29.6118 26.8747 29.6118C26.8334 29.6118 26.7714 29.6118 26.7094 29.5919C26.5234 29.572 26.4407 29.4725 26.2134 29.2138L26.1928 29.174C25.9241 28.8357 25.7175 28.7561 25.4282 28.6566C25.3455 28.6168 25.2422 28.5969 25.1389 28.5372C24.5809 28.2785 24.1676 27.8406 23.9816 27.3033C23.8576 26.9451 23.7956 26.4078 24.1263 25.7909C24.3743 25.353 24.7876 25.0346 25.3248 24.8356C25.4282 24.7958 25.5108 24.7162 25.5521 24.6366C25.5935 24.5371 25.5935 24.4376 25.5521 24.3381C25.3042 23.7013 25.3868 22.8853 25.8001 22.1689C26.1101 21.6316 26.668 21.2535 27.35 21.1341C27.5566 21.0943 27.7013 20.9151 27.6806 20.6962C27.6393 20.2385 27.7633 19.741 28.0319 19.4027C28.1146 19.3032 28.2179 19.2037 28.3419 19.1042C28.3832 19.0644 28.4245 19.0246 28.4452 18.9649C28.8172 18.2285 29.4371 17.6315 30.305 17.1539C30.6563 16.9549 30.8836 16.7758 31.049 16.6166C31.2556 16.5171 31.3383 16.4574 31.4416 16.4175ZM31.4829 16.0195C31.4416 16.0195 31.4003 16.0195 31.3383 16.0394C30.925 16.1389 30.801 16.5171 30.1397 16.8753C29.0652 17.4723 28.4452 18.1887 28.1146 18.8654C27.9699 18.9848 27.8459 19.1042 27.7219 19.2435C27.3706 19.6813 27.226 20.2783 27.288 20.8156C26.5027 20.9748 25.8415 21.4127 25.4695 22.0495C24.9735 22.8853 24.9115 23.8207 25.2008 24.557C24.6016 24.7759 24.0849 25.154 23.7956 25.6913C23.0724 26.9849 23.7543 28.4178 24.9942 28.975C25.4488 29.174 25.5728 29.0944 25.9034 29.4924C26.1308 29.771 26.3167 30.0098 26.6887 30.0695C26.7714 30.0894 26.8334 30.0894 26.8954 30.0894C27.288 30.0894 27.4533 29.9302 27.5566 29.6715C27.6393 29.4725 27.6806 29.2337 27.7219 29.174C27.8459 28.8954 28.0526 28.7959 28.2386 28.7959C28.5899 28.7959 28.9205 29.1342 28.9205 29.5322L28.8792 29.9103C28.8585 30.3282 29.1891 30.7263 29.6438 30.786H29.7678C30.243 30.786 30.615 30.4477 30.6357 30.0297L30.6977 29.2337C30.7183 28.8556 31.0076 28.5571 31.4209 28.4974C31.4209 28.4974 31.7102 28.3979 32.1855 28.2984L35.0579 28.4377C35.2852 28.5571 35.4299 28.6964 35.5126 28.8556C35.7192 29.2138 36.0705 29.4725 36.5045 29.5322C36.5871 29.5521 36.6698 29.5521 36.7524 29.5521C37.4964 29.5521 38.1163 29.0148 38.1576 28.3183V28.2984C38.1576 28.2785 38.1576 28.2785 38.1576 28.2586C38.6949 28.0197 39.2322 27.5421 39.4389 26.6267C39.6248 25.771 39.1289 24.358 38.0336 23.7212C37.7857 23.5023 37.4964 23.3231 37.1657 23.2037C37.3517 22.5868 37.1864 21.8107 36.6284 21.0943L36.5458 20.9748C36.0912 20.3778 35.3679 19.9798 34.5826 19.8803C34.5 19.5818 34.3347 19.2634 34.1073 18.8853C33.6941 18.2683 32.9915 17.9101 32.2475 17.9101C32.1855 17.9101 32.1235 17.9101 32.0615 17.9101C31.8342 17.5121 31.8136 17.0345 31.8549 16.6564C31.8962 16.2981 31.7722 16.0195 31.4829 16.0195Z" fill="#434343"/>
<path d="M9.24219 61V52.4102H12.2012C12.8691 52.4102 13.3789 52.4512 13.7305 52.5332C14.2227 52.6465 14.6426 52.8516 14.9902 53.1484C15.4434 53.5312 15.7812 54.0215 16.0039 54.6191C16.2305 55.2129 16.3438 55.8926 16.3438 56.6582C16.3438 57.3105 16.2676 57.8887 16.1152 58.3926C15.9629 58.8965 15.7676 59.3145 15.5293 59.6465C15.291 59.9746 15.0293 60.2344 14.7441 60.4258C14.4629 60.6133 14.1211 60.7559 13.7188 60.8535C13.3203 60.9512 12.8613 61 12.3418 61H9.24219ZM10.3789 59.9863H12.2129C12.7793 59.9863 13.2227 59.9336 13.543 59.8281C13.8672 59.7227 14.125 59.5742 14.3164 59.3828C14.5859 59.1133 14.7949 58.752 14.9434 58.2988C15.0957 57.8418 15.1719 57.2891 15.1719 56.6406C15.1719 55.7422 15.0234 55.0527 14.7266 54.5723C14.4336 54.0879 14.0762 53.7637 13.6543 53.5996C13.3496 53.4824 12.8594 53.4238 12.1836 53.4238H10.3789V59.9863ZM22.0391 58.9961L23.1289 59.1309C22.957 59.7676 22.6387 60.2617 22.1738 60.6133C21.709 60.9648 21.1152 61.1406 20.3926 61.1406C19.4824 61.1406 18.7598 60.8613 18.2246 60.3027C17.6934 59.7402 17.4277 58.9531 17.4277 57.9414C17.4277 56.8945 17.6973 56.082 18.2363 55.5039C18.7754 54.9258 19.4746 54.6367 20.334 54.6367C21.166 54.6367 21.8457 54.9199 22.373 55.4863C22.9004 56.0527 23.1641 56.8496 23.1641 57.877C23.1641 57.9395 23.1621 58.0332 23.1582 58.1582H18.5176C18.5566 58.8418 18.75 59.3652 19.0977 59.7285C19.4453 60.0918 19.8789 60.2734 20.3984 60.2734C20.7852 60.2734 21.1152 60.1719 21.3887 59.9688C21.6621 59.7656 21.8789 59.4414 22.0391 58.9961ZM18.5762 57.291H22.0508C22.0039 56.7676 21.8711 56.375 21.6523 56.1133C21.3164 55.707 20.8809 55.5039 20.3457 55.5039C19.8613 55.5039 19.4531 55.666 19.1211 55.9902C18.793 56.3145 18.6113 56.748 18.5762 57.291ZM24.0371 59.1426L25.0801 58.9785C25.1387 59.3965 25.3008 59.7168 25.5664 59.9395C25.8359 60.1621 26.2109 60.2734 26.6914 60.2734C27.1758 60.2734 27.5352 60.1758 27.7695 59.9805C28.0039 59.7812 28.1211 59.5488 28.1211 59.2832C28.1211 59.0449 28.0176 58.8574 27.8105 58.7207C27.666 58.627 27.3066 58.5078 26.7324 58.3633C25.959 58.168 25.4219 58 25.1211 57.8594C24.8242 57.7148 24.5977 57.5176 24.4414 57.2676C24.2891 57.0137 24.2129 56.7344 24.2129 56.4297C24.2129 56.1523 24.2754 55.8965 24.4004 55.6621C24.5293 55.4238 24.7031 55.2266 24.9219 55.0703C25.0859 54.9492 25.3086 54.8477 25.5898 54.7656C25.875 54.6797 26.1797 54.6367 26.5039 54.6367C26.9922 54.6367 27.4199 54.707 27.7871 54.8477C28.1582 54.9883 28.4316 55.1797 28.6074 55.4219C28.7832 55.6602 28.9043 55.9805 28.9707 56.3828L27.9395 56.5234C27.8926 56.2031 27.7559 55.9531 27.5293 55.7734C27.3066 55.5938 26.9902 55.5039 26.5801 55.5039C26.0957 55.5039 25.75 55.584 25.543 55.7441C25.3359 55.9043 25.2324 56.0918 25.2324 56.3066C25.2324 56.4434 25.2754 56.5664 25.3613 56.6758C25.4473 56.7891 25.582 56.8828 25.7656 56.957C25.8711 56.9961 26.1816 57.0859 26.6973 57.2266C27.4434 57.4258 27.9629 57.5898 28.2559 57.7188C28.5527 57.8438 28.7852 58.0273 28.9531 58.2695C29.1211 58.5117 29.2051 58.8125 29.2051 59.1719C29.2051 59.5234 29.1016 59.8555 28.8945 60.168C28.6914 60.4766 28.3965 60.7168 28.0098 60.8887C27.623 61.0566 27.1855 61.1406 26.6973 61.1406C25.8887 61.1406 25.2715 60.9727 24.8457 60.6367C24.4238 60.3008 24.1543 59.8027 24.0371 59.1426ZM30.0371 59.1426L31.0801 58.9785C31.1387 59.3965 31.3008 59.7168 31.5664 59.9395C31.8359 60.1621 32.2109 60.2734 32.6914 60.2734C33.1758 60.2734 33.5352 60.1758 33.7695 59.9805C34.0039 59.7812 34.1211 59.5488 34.1211 59.2832C34.1211 59.0449 34.0176 58.8574 33.8105 58.7207C33.666 58.627 33.3066 58.5078 32.7324 58.3633C31.959 58.168 31.4219 58 31.1211 57.8594C30.8242 57.7148 30.5977 57.5176 30.4414 57.2676C30.2891 57.0137 30.2129 56.7344 30.2129 56.4297C30.2129 56.1523 30.2754 55.8965 30.4004 55.6621C30.5293 55.4238 30.7031 55.2266 30.9219 55.0703C31.0859 54.9492 31.3086 54.8477 31.5898 54.7656C31.875 54.6797 32.1797 54.6367 32.5039 54.6367C32.9922 54.6367 33.4199 54.707 33.7871 54.8477C34.1582 54.9883 34.4316 55.1797 34.6074 55.4219C34.7832 55.6602 34.9043 55.9805 34.9707 56.3828L33.9395 56.5234C33.8926 56.2031 33.7559 55.9531 33.5293 55.7734C33.3066 55.5938 32.9902 55.5039 32.5801 55.5039C32.0957 55.5039 31.75 55.584 31.543 55.7441C31.3359 55.9043 31.2324 56.0918 31.2324 56.3066C31.2324 56.4434 31.2754 56.5664 31.3613 56.6758C31.4473 56.7891 31.582 56.8828 31.7656 56.957C31.8711 56.9961 32.1816 57.0859 32.6973 57.2266C33.4434 57.4258 33.9629 57.5898 34.2559 57.7188C34.5527 57.8438 34.7852 58.0273 34.9531 58.2695C35.1211 58.5117 35.2051 58.8125 35.2051 59.1719C35.2051 59.5234 35.1016 59.8555 34.8945 60.168C34.6914 60.4766 34.3965 60.7168 34.0098 60.8887C33.623 61.0566 33.1855 61.1406 32.6973 61.1406C31.8887 61.1406 31.2715 60.9727 30.8457 60.6367C30.4238 60.3008 30.1543 59.8027 30.0371 59.1426ZM40.7188 58.9961L41.8086 59.1309C41.6367 59.7676 41.3184 60.2617 40.8535 60.6133C40.3887 60.9648 39.7949 61.1406 39.0723 61.1406C38.1621 61.1406 37.4395 60.8613 36.9043 60.3027C36.373 59.7402 36.1074 58.9531 36.1074 57.9414C36.1074 56.8945 36.377 56.082 36.916 55.5039C37.4551 54.9258 38.1543 54.6367 39.0137 54.6367C39.8457 54.6367 40.5254 54.9199 41.0527 55.4863C41.5801 56.0527 41.8438 56.8496 41.8438 57.877C41.8438 57.9395 41.8418 58.0332 41.8379 58.1582H37.1973C37.2363 58.8418 37.4297 59.3652 37.7773 59.7285C38.125 60.0918 38.5586 60.2734 39.0781 60.2734C39.4648 60.2734 39.7949 60.1719 40.0684 59.9688C40.3418 59.7656 40.5586 59.4414 40.7188 58.9961ZM37.2559 57.291H40.7305C40.6836 56.7676 40.5508 56.375 40.332 56.1133C39.9961 55.707 39.5605 55.5039 39.0254 55.5039C38.541 55.5039 38.1328 55.666 37.8008 55.9902C37.4727 56.3145 37.291 56.748 37.2559 57.291ZM43.127 61V54.7773H44.0762V55.7207C44.3184 55.2793 44.541 54.9883 44.7441 54.8477C44.9512 54.707 45.1777 54.6367 45.4238 54.6367C45.7793 54.6367 46.1406 54.75 46.5078 54.9766L46.1445 55.9551C45.8867 55.8027 45.6289 55.7266 45.3711 55.7266C45.1406 55.7266 44.9336 55.7969 44.75 55.9375C44.5664 56.0742 44.4355 56.2656 44.3574 56.5117C44.2402 56.8867 44.1816 57.2969 44.1816 57.7422V61H43.127ZM49.4375 60.0566L49.5898 60.9883C49.293 61.0508 49.0273 61.082 48.793 61.082C48.4102 61.082 48.1133 61.0215 47.9023 60.9004C47.6914 60.7793 47.543 60.6211 47.457 60.4258C47.3711 60.2266 47.3281 59.8105 47.3281 59.1777V55.5977H46.5547V54.7773H47.3281V53.2363L48.377 52.6035V54.7773H49.4375V55.5977H48.377V59.2363C48.377 59.5371 48.3945 59.7305 48.4297 59.8164C48.4688 59.9023 48.5293 59.9707 48.6113 60.0215C48.6973 60.0723 48.8184 60.0977 48.9746 60.0977C49.0918 60.0977 49.2461 60.084 49.4375 60.0566ZM50.0527 59.1426L51.0957 58.9785C51.1543 59.3965 51.3164 59.7168 51.582 59.9395C51.8516 60.1621 52.2266 60.2734 52.707 60.2734C53.1914 60.2734 53.5508 60.1758 53.7852 59.9805C54.0195 59.7812 54.1367 59.5488 54.1367 59.2832C54.1367 59.0449 54.0332 58.8574 53.8262 58.7207C53.6816 58.627 53.3223 58.5078 52.748 58.3633C51.9746 58.168 51.4375 58 51.1367 57.8594C50.8398 57.7148 50.6133 57.5176 50.457 57.2676C50.3047 57.0137 50.2285 56.7344 50.2285 56.4297C50.2285 56.1523 50.291 55.8965 50.416 55.6621C50.5449 55.4238 50.7188 55.2266 50.9375 55.0703C51.1016 54.9492 51.3242 54.8477 51.6055 54.7656C51.8906 54.6797 52.1953 54.6367 52.5195 54.6367C53.0078 54.6367 53.4355 54.707 53.8027 54.8477C54.1738 54.9883 54.4473 55.1797 54.623 55.4219C54.7988 55.6602 54.9199 55.9805 54.9863 56.3828L53.9551 56.5234C53.9082 56.2031 53.7715 55.9531 53.5449 55.7734C53.3223 55.5938 53.0059 55.5039 52.5957 55.5039C52.1113 55.5039 51.7656 55.584 51.5586 55.7441C51.3516 55.9043 51.248 56.0918 51.248 56.3066C51.248 56.4434 51.291 56.5664 51.377 56.6758C51.4629 56.7891 51.5977 56.8828 51.7812 56.957C51.8867 56.9961 52.1973 57.0859 52.7129 57.2266C53.459 57.4258 53.9785 57.5898 54.2715 57.7188C54.5684 57.8438 54.8008 58.0273 54.9688 58.2695C55.1367 58.5117 55.2207 58.8125 55.2207 59.1719C55.2207 59.5234 55.1172 59.8555 54.9102 60.168C54.707 60.4766 54.4121 60.7168 54.0254 60.8887C53.6387 61.0566 53.2012 61.1406 52.7129 61.1406C51.9043 61.1406 51.2871 60.9727 50.8613 60.6367C50.4395 60.3008 50.1699 59.8027 50.0527 59.1426Z" fill="#003850"/>
<defs>
<radialGradient id="paint0_radial_1305_798" cx="0" cy="0" r="1" gradientUnits="userSpaceOnUse" gradientTransform="translate(31.6973 18.0561) rotate(-177.422) scale(3.61518 3.4821)">
<stop offset="0.1692" stop-color="#FECC81"/>
<stop offset="0.2255" stop-color="#FFD492"/>
<stop offset="0.3652" stop-color="#FFE7BC"/>
<stop offset="0.4717" stop-color="#FFF2D7"/>
<stop offset="0.5315" stop-color="#FEF7E2"/>
</radialGradient>
<linearGradient id="paint1_linear_1305_798" x1="31.4748" y1="32.3871" x2="31.4748" y2="39.9685" gradientUnits="userSpaceOnUse">
<stop stop-color="#FCB316"/>
<stop offset="0.0724" stop-color="#FFCB28"/>
<stop offset="0.3217" stop-color="#FFC826"/>
<stop offset="0.5653" stop-color="#FEBF1E"/>
<stop offset="0.7841" stop-color="#FCB316"/>
</linearGradient>
<linearGradient id="paint2_linear_1305_798" x1="24.6016" y1="29.6419" x2="38.3849" y2="29.6419" gradientUnits="userSpaceOnUse">
<stop offset="0.2376" stop-color="#FFD54E"/>
<stop offset="0.7544" stop-color="#FEC111"/>
</linearGradient>
<radialGradient id="paint3_radial_1305_798" cx="0" cy="0" r="1" gradientUnits="userSpaceOnUse" gradientTransform="translate(33.8443 16.7203) rotate(12.78) scale(18.0186 11.6079)">
<stop offset="0.4685" stop-color="#FEF7E2"/>
<stop offset="0.5283" stop-color="#FFF2D7"/>
<stop offset="0.6348" stop-color="#F3C87A"/>
<stop offset="0.7745" stop-color="#FFD492"/>
<stop offset="0.8308" stop-color="#FFC061"/>
</radialGradient>
<radialGradient id="paint4_radial_1305_798" cx="0" cy="0" r="1" gradientUnits="userSpaceOnUse" gradientTransform="translate(30.595 16.4426) rotate(-8.48504) scale(9.69958 6.04929)">
<stop offset="0.4685" stop-color="#FEF7E2"/>
<stop offset="0.5283" stop-color="#FFF2D7"/>
<stop offset="0.6348" stop-color="#FFE7BC"/>
<stop offset="0.7745" stop-color="#FFD492"/>
<stop offset="0.8308" stop-color="#FECC81"/>
</radialGradient>
<radialGradient id="paint5_radial_1305_798" cx="0" cy="0" r="1" gradientUnits="userSpaceOnUse" gradientTransform="translate(30.6595 17.9007) rotate(-7.84203) scale(15.8016 8.78416)">
<stop offset="0.348144" stop-color="#FEF7E2"/>
<stop offset="0.4685" stop-color="#FEF7E2"/>
<stop offset="0.5283" stop-color="#FFF2D7"/>
<stop offset="0.6348" stop-color="#FFAAC3"/>
<stop offset="0.7745" stop-color="#FF92A6"/>
<stop offset="0.8308" stop-color="#FE5858"/>
</radialGradient>
<radialGradient id="paint6_radial_1305_798" cx="0" cy="0" r="1" gradientUnits="userSpaceOnUse" gradientTransform="translate(30.6955 21.1561) rotate(-11.7432) scale(19.9293 10.4424)">
<stop offset="0.4465" stop-color="#FEF7E2"/>
<stop offset="0.4957" stop-color="#FFF2D7"/>
<stop offset="0.5833" stop-color="#FFE7BC"/>
<stop offset="0.6984" stop-color="#FFD492"/>
<stop offset="0.7447" stop-color="#FECC81"/>
</radialGradient>
</defs>
</svg>
