<svg width="17" height="24" viewBox="0 0 17 24" fill="none" xmlns="http://www.w3.org/2000/svg">
<path d="M4.92886 4.63638C4.92886 4.63638 4.51557 2.28807 7.22265 0.815411C7.84259 0.477097 7.96658 0.118881 8.35921 0.0193769C8.73118 -0.0801274 8.8965 0.218386 8.85517 0.576601C8.77251 1.33283 8.93782 2.46718 10.5703 2.54679H10.6943C9.55777 4.09905 4.92886 4.63638 4.92886 4.63638Z" fill="url(#paint0_radial_1305_801)"/>
<path d="M10.7996 23.9407H6.17065C5.24074 23.9407 4.47614 23.2839 4.33149 22.4083L2.98828 13.2539H13.9613L12.618 22.4083C12.4941 23.2839 11.7088 23.9407 10.7996 23.9407Z" fill="url(#paint1_linear_1305_801)"/>
<path opacity="0.2" d="M13.6303 15.562C13.5683 15.562 13.5063 15.5819 13.4443 15.6217L11.7704 17.4128L10.1379 15.6615L11.0265 14.7062C11.1092 14.6266 11.0885 14.5072 11.0058 14.4276C10.9232 14.348 10.7992 14.3679 10.7165 14.4475L9.86927 15.363L9.02202 14.4475C8.93936 14.3679 8.81537 14.3679 8.73271 14.4276C8.65005 14.5072 8.65005 14.6266 8.71205 14.7062L9.60063 15.6615L8.21609 17.154L6.70757 15.5421L6.99687 15.2436C7.07953 15.164 7.05887 15.0446 6.97621 14.965C6.89355 14.8853 6.76956 14.9052 6.6869 14.9849L6.41826 15.2436L5.695 14.4674C5.61234 14.3878 5.48835 14.3878 5.40569 14.4475C5.32303 14.5271 5.32303 14.6465 5.38503 14.7261L6.14962 15.5421L4.51711 17.2934L3.60786 16.3182C3.56653 16.2585 3.48387 16.2386 3.42188 16.2585L3.50453 16.8157L4.24846 17.6118L3.71118 18.1889L3.77318 18.6466C3.81451 18.6466 3.85583 18.6267 3.89716 18.5869L4.51711 17.9302L6.02563 19.562L4.51711 21.1939L4.26913 20.9352C4.2278 20.8755 4.14514 20.8556 4.08315 20.8755L4.16581 21.4327L4.2278 21.4924L4.18647 21.5322L4.24846 21.99C4.28979 21.99 4.33112 21.9701 4.37245 21.9303L4.51711 21.7909L6.14962 23.5422L5.86031 23.8606C5.83965 23.9004 5.81898 23.9203 5.81898 23.9601C5.94297 23.98 6.06696 23.9999 6.19095 23.9999H6.29427L6.43893 23.8407L6.58358 23.9999H7.0382C7.0382 23.9402 7.0382 23.8805 6.99687 23.8407L6.70757 23.5422L8.21609 21.9104L9.60063 23.4029L9.16667 23.8606C9.12534 23.9004 9.10468 23.9402 9.10468 23.9999H9.57997L9.84861 23.7014L10.1173 23.9999H10.5925C10.5925 23.9601 10.5719 23.9004 10.5512 23.8606L10.1173 23.4029L11.7498 21.6516L12.473 22.4278C12.5144 22.4676 12.5557 22.4875 12.597 22.4875C12.597 22.4676 12.597 22.4676 12.597 22.4477L12.659 22.0298L12.0391 21.3531L12.907 20.4178L12.9896 19.8606C12.9277 19.8606 12.845 19.8606 12.8037 19.9203L11.7704 21.0347L10.3859 19.5421L11.7704 18.0496L12.9483 19.3033C12.9896 19.3431 13.031 19.363 13.0723 19.363L13.1343 18.9053L12.0597 17.7312L13.5476 16.1391L13.6303 15.562ZM4.80641 17.572L6.43893 15.8207L7.94745 17.4526L6.3356 19.2038L4.80641 17.572ZM6.41826 23.1641L4.78575 21.4128L6.29427 19.781L7.92679 21.5322L6.41826 23.1641ZM6.58358 19.5023L8.21609 17.7511L9.82794 19.5023L8.21609 21.2536L6.58358 19.5023ZM11.5018 21.2934L9.88994 23.0447L8.5054 21.5521L10.1379 19.8009L11.5018 21.2934ZM10.1173 19.2038L8.48474 17.4526L9.86927 15.96L11.5018 17.7113L10.1173 19.2038Z" fill="#795649"/>
<path opacity="0.2" d="M13.5066 13.6314L12.2254 22.3281C12.1221 23.0047 11.5022 23.5221 10.7996 23.5221H6.17065C5.46805 23.5221 4.84811 23.0047 4.74478 22.3281L3.46357 13.6314H13.5066ZM13.9819 13.2334H2.98828L4.33149 22.3878C4.47614 23.2634 5.24074 23.9202 6.17065 23.9202H10.7996C11.7088 23.9202 12.4941 23.2634 12.6387 22.3878L13.9819 13.2334Z" fill="#434343"/>
<path d="M14.1451 15.9206H2.82078C2.36616 15.9206 1.97353 15.5425 1.97353 15.0648L1.60156 11.3633H15.3849L14.9923 15.0648C14.9716 15.5425 14.5997 15.9206 14.1451 15.9206Z" fill="url(#paint2_linear_1305_801)"/>
<path opacity="0.2" d="M14.9097 11.7613L14.5584 15.025V15.0648C14.5584 15.3236 14.3724 15.5226 14.1244 15.5226H2.82078C2.59347 15.5226 2.38682 15.3236 2.38682 15.0648C2.38682 15.0449 2.38682 15.0449 2.38682 15.025L2.05619 11.7613H14.9097ZM15.3643 11.3633H1.60156L1.99419 15.0648C1.99419 15.5425 2.36616 15.9206 2.84145 15.9206H14.1657C14.6203 15.9206 15.013 15.5425 15.013 15.0648C14.9923 15.0648 15.3643 11.3633 15.3643 11.3633Z" fill="#434343"/>
<path d="M13.5884 12.4578L3.35938 12L3.91732 8.4776L14.415 7.42285C15.9442 7.76117 16.6881 9.55224 16.4608 10.5871C15.9649 12.7961 13.5884 12.4578 13.5884 12.4578Z" fill="url(#paint3_radial_1305_801)"/>
<path d="M10.5891 5.13343L6.0015 6.10857C4.26566 6.36729 3.91436 4.3175 4.76161 3.22295C5.15424 2.70553 5.85684 2.36721 6.55944 2.26771L8.89456 1.90949C9.76248 1.77019 10.6511 2.1483 11.1057 2.84483C11.767 3.91948 12.0356 4.65581 10.5891 5.13343Z" fill="url(#paint4_radial_1305_801)"/>
<path d="M12.3473 8.47695L4.53602 9.7506C2.28357 10.0292 1.47764 7.80032 2.51088 6.02914C2.90351 5.35251 3.64744 4.87489 4.49469 4.75549L10.7768 3.84005C11.8513 3.68084 12.9672 4.11866 13.5872 4.91469L13.6698 5.0341C14.8064 6.56647 14.3518 8.21824 12.3473 8.47695Z" fill="url(#paint5_radial_1305_801)"/>
<path d="M15.4871 8.19909L15.4458 8.13938C14.8879 7.30355 13.834 6.86573 12.7594 7.00504L2.81965 8.3782C1.9724 8.4976 1.2078 8.95532 0.815175 9.65185C0.091909 10.9454 0.773846 12.3783 2.01373 12.9355C2.46835 13.1345 2.59234 13.0549 2.92298 13.4529C3.15029 13.7315 3.33627 13.9703 3.70824 14.03C4.24552 14.0897 4.47283 13.9106 4.59682 13.6121C4.67948 13.4131 4.72081 13.1743 4.76214 13.1146C5.11344 12.3584 5.98136 12.836 5.9607 13.4529L5.91937 13.831C5.8987 14.2489 6.22934 14.647 6.68396 14.7067C7.20058 14.7664 7.6552 14.4281 7.67587 13.9504L7.73786 13.1544C7.75853 12.7763 8.04783 12.4778 8.46113 12.4181C8.46113 12.4181 9.1224 12.1793 10.011 12.1395C11.6642 12.04 12.3254 12.3584 12.5527 12.7763C12.7594 13.1345 13.1107 13.3932 13.5447 13.4529C14.3919 13.5922 15.1565 13.0151 15.1978 12.239V12.2191C15.2392 11.5225 15.4458 10.8658 15.7351 10.229C16.0038 9.63195 15.9624 8.89562 15.4871 8.19909Z" fill="url(#paint6_radial_1305_801)"/>
<path opacity="0.2" d="M8.4416 0.417548C8.4416 0.45735 8.46226 0.497152 8.4416 0.576755C8.3796 1.15388 8.46226 1.6713 8.68957 2.06932C8.75157 2.18872 8.89622 2.26833 9.06154 2.26833H9.10287H9.24752C9.86746 2.26833 10.4461 2.56684 10.7767 3.04446C10.942 3.32307 11.1487 3.66139 11.2107 3.9201C11.252 4.07931 11.3967 4.19871 11.562 4.21861C12.2439 4.29822 12.8639 4.63653 13.2565 5.15395L13.3391 5.27336C13.7938 5.87038 13.9797 6.52711 13.8144 7.04453C13.7524 7.24354 13.8558 7.44255 14.0624 7.52216C14.331 7.62166 14.579 7.78087 14.7857 7.95997C14.8063 7.97988 14.827 7.99978 14.8477 8.01968C15.8189 8.5769 16.2115 9.83066 16.0462 10.4874C15.9016 11.1441 15.5503 11.5819 14.9923 11.8406C14.8477 11.9003 14.765 12.0396 14.7443 12.179V12.2188V12.2387C14.7237 12.7163 14.2897 13.0745 13.7524 13.0745C13.6904 13.0745 13.6284 13.0745 13.5665 13.0546C13.2771 13.0148 13.0085 12.8357 12.8639 12.577C12.7192 12.3382 12.5126 12.1392 12.2232 11.9998C12.1819 11.9799 12.1199 11.96 12.0579 11.96L9.18553 11.8207H9.16486C9.1442 11.8207 9.12353 11.8207 9.0822 11.8207C8.68957 11.9003 8.40027 11.9799 8.29694 12.0198C7.71833 12.1193 7.30504 12.577 7.26371 13.1143L7.20171 13.9103C7.20171 14.1292 6.99507 14.2884 6.74709 14.2884C6.72642 14.2884 6.70576 14.2884 6.68509 14.2884C6.45778 14.2486 6.2718 14.0496 6.29246 13.8307L6.33379 13.4725C6.33379 13.4526 6.33379 13.4526 6.33379 13.4327C6.33379 13.1342 6.20981 12.8357 5.98249 12.6168C5.77585 12.4178 5.5072 12.2984 5.23856 12.2984C4.84593 12.2984 4.5153 12.5173 4.32931 12.9153C4.30865 12.975 4.28798 13.0347 4.26732 13.1342C4.24665 13.2337 4.20533 13.3531 4.164 13.4327C4.12267 13.5521 4.08134 13.6118 3.87469 13.6118C3.83336 13.6118 3.77137 13.6118 3.70937 13.5919C3.52339 13.572 3.44073 13.4725 3.21342 13.2138L3.19275 13.174C2.92411 12.8357 2.71746 12.7561 2.42816 12.6566C2.3455 12.6168 2.24218 12.5969 2.13885 12.5372C1.5809 12.2785 1.16761 11.8406 0.981627 11.3033C0.857638 10.9451 0.795644 10.4078 1.12628 9.79085C1.37426 9.35303 1.78755 9.03462 2.32483 8.83561C2.42816 8.79581 2.51082 8.71621 2.55215 8.6366C2.59348 8.5371 2.59348 8.43759 2.55215 8.33809C2.30417 7.70126 2.38683 6.88533 2.80012 6.1689C3.11009 5.63157 3.66804 5.25346 4.34998 5.13405C4.55663 5.09425 4.70128 4.91514 4.68061 4.69623C4.63929 4.23851 4.76327 3.74099 5.03192 3.40268C5.11457 3.30317 5.2179 3.20367 5.34189 3.10416C5.38322 3.06436 5.42455 3.02456 5.44521 2.96486C5.81717 2.22853 6.43712 1.6315 7.30504 1.15388C7.65634 0.954872 7.88365 0.775764 8.04897 0.616557C8.25561 0.517053 8.33827 0.45735 8.4416 0.417548ZM8.48293 0.0195312C8.4416 0.0195312 8.40027 0.0195312 8.33827 0.0394321C7.92498 0.138936 7.80099 0.517053 7.13972 0.875268C6.06515 1.47229 5.44521 2.18872 5.11457 2.86535C4.96992 2.98476 4.84593 3.10416 4.72194 3.24347C4.37064 3.68129 4.22599 4.27832 4.28798 4.81564C3.50272 4.97485 2.84145 5.41266 2.46949 6.04949C1.97353 6.88533 1.91154 7.82067 2.20085 8.557C1.60157 8.77591 1.08495 9.15403 0.795644 9.69135C0.0723778 10.9849 0.754314 12.4178 1.9942 12.975C2.44882 13.174 2.57281 13.0944 2.90345 13.4924C3.13076 13.771 3.31674 14.0098 3.68871 14.0695C3.77137 14.0894 3.83336 14.0894 3.89535 14.0894C4.28798 14.0894 4.4533 13.9302 4.55663 13.6715C4.63929 13.4725 4.68061 13.2337 4.72194 13.174C4.84593 12.8954 5.05258 12.7959 5.23856 12.7959C5.58986 12.7959 5.9205 13.1342 5.9205 13.5322L5.87917 13.9103C5.85851 14.3282 6.18914 14.7263 6.64376 14.786H6.76775C7.24304 14.786 7.61501 14.4477 7.63567 14.0297L7.69767 13.2337C7.71833 12.8556 8.00764 12.5571 8.42093 12.4974C8.42093 12.4974 8.71024 12.3979 9.18553 12.2984L12.0579 12.4377C12.2852 12.5571 12.4299 12.6964 12.5126 12.8556C12.7192 13.2138 13.0705 13.4725 13.5045 13.5322C13.5871 13.5521 13.6698 13.5521 13.7524 13.5521C14.4964 13.5521 15.1163 13.0148 15.1576 12.3183V12.2984C15.1576 12.2785 15.1576 12.2785 15.1576 12.2586C15.6949 12.0197 16.2322 11.5421 16.4389 10.6267C16.6248 9.77095 16.1289 8.35799 15.0336 7.72116C14.7857 7.50225 14.4964 7.32315 14.1657 7.20374C14.3517 6.58681 14.1864 5.81068 13.6284 5.09425L13.5458 4.97485C13.0912 4.37782 12.3679 3.9798 11.5826 3.8803C11.5 3.58179 11.3347 3.26337 11.1073 2.88526C10.6941 2.26833 9.99145 1.91011 9.24752 1.91011C9.18553 1.91011 9.12353 1.91011 9.06154 1.91011C8.83423 1.5121 8.81356 1.03448 8.85489 0.656359C8.89622 0.298143 8.77223 0.0195312 8.48293 0.0195312Z" fill="#434343"/>
<defs>
<radialGradient id="paint0_radial_1305_801" cx="0" cy="0" r="1" gradientUnits="userSpaceOnUse" gradientTransform="translate(8.69729 2.0561) rotate(-177.422) scale(3.61518 3.4821)">
<stop offset="0.1692" stop-color="#FECC81"/>
<stop offset="0.2255" stop-color="#FFD492"/>
<stop offset="0.3652" stop-color="#FFE7BC"/>
<stop offset="0.4717" stop-color="#FFF2D7"/>
<stop offset="0.5315" stop-color="#FEF7E2"/>
</radialGradient>
<linearGradient id="paint1_linear_1305_801" x1="8.47477" y1="16.3871" x2="8.47477" y2="23.9685" gradientUnits="userSpaceOnUse">
<stop stop-color="#FCB316"/>
<stop offset="0.0724" stop-color="#FFCB28"/>
<stop offset="0.3217" stop-color="#FFC826"/>
<stop offset="0.5653" stop-color="#FEBF1E"/>
<stop offset="0.7841" stop-color="#FCB316"/>
</linearGradient>
<linearGradient id="paint2_linear_1305_801" x1="1.60156" y1="13.6419" x2="15.3849" y2="13.6419" gradientUnits="userSpaceOnUse">
<stop offset="0.2376" stop-color="#FFD54E"/>
<stop offset="0.7544" stop-color="#FEC111"/>
</linearGradient>
<radialGradient id="paint3_radial_1305_801" cx="0" cy="0" r="1" gradientUnits="userSpaceOnUse" gradientTransform="translate(10.8443 0.720343) rotate(12.78) scale(18.0186 11.6079)">
<stop offset="0.4685" stop-color="#FEF7E2"/>
<stop offset="0.5283" stop-color="#FFF2D7"/>
<stop offset="0.6348" stop-color="#F3C87A"/>
<stop offset="0.7745" stop-color="#FFD492"/>
<stop offset="0.8308" stop-color="#FFC061"/>
</radialGradient>
<radialGradient id="paint4_radial_1305_801" cx="0" cy="0" r="1" gradientUnits="userSpaceOnUse" gradientTransform="translate(7.59502 0.442569) rotate(-8.48504) scale(9.69958 6.04929)">
<stop offset="0.4685" stop-color="#FEF7E2"/>
<stop offset="0.5283" stop-color="#FFF2D7"/>
<stop offset="0.6348" stop-color="#FFE7BC"/>
<stop offset="0.7745" stop-color="#FFD492"/>
<stop offset="0.8308" stop-color="#FECC81"/>
</radialGradient>
<radialGradient id="paint5_radial_1305_801" cx="0" cy="0" r="1" gradientUnits="userSpaceOnUse" gradientTransform="translate(7.65948 1.90067) rotate(-7.84203) scale(15.8016 8.78416)">
<stop offset="0.348144" stop-color="#FEF7E2"/>
<stop offset="0.4685" stop-color="#FEF7E2"/>
<stop offset="0.5283" stop-color="#FFF2D7"/>
<stop offset="0.6348" stop-color="#FFAAC3"/>
<stop offset="0.7745" stop-color="#FF92A6"/>
<stop offset="0.8308" stop-color="#FE5858"/>
</radialGradient>
<radialGradient id="paint6_radial_1305_801" cx="0" cy="0" r="1" gradientUnits="userSpaceOnUse" gradientTransform="translate(7.6955 5.15614) rotate(-11.7432) scale(19.9293 10.4424)">
<stop offset="0.4465" stop-color="#FEF7E2"/>
<stop offset="0.4957" stop-color="#FFF2D7"/>
<stop offset="0.5833" stop-color="#FFE7BC"/>
<stop offset="0.6984" stop-color="#FFD492"/>
<stop offset="0.7447" stop-color="#FECC81"/>
</radialGradient>
</defs>
</svg>
