<svg width="16" height="24" viewBox="0 0 16 24" fill="none" xmlns="http://www.w3.org/2000/svg">
<path fill-rule="evenodd" clip-rule="evenodd" d="M2.82507 0H7.05145L7.52105 2.3226H2.35547L2.82507 0Z" fill="#E43535"/>
<path fill-rule="evenodd" clip-rule="evenodd" d="M2.82372 2.32227H7.05011L7.58513 4.27716C7.69922 4.69403 8.01541 5.32195 8.29773 5.6879L9.88209 7.74166V14.7095L9.14001 17.4543C8.91407 18.29 9.0835 19.5942 9.52053 20.371L9.68367 20.6609C10.1198 21.436 9.85928 22.5428 9.10777 23.1283L8.32949 23.7348C8.14161 23.8812 7.77917 23.9998 7.52041 23.9998H2.35342C2.09446 23.9998 1.73031 23.8788 1.54172 23.7307L0.781627 23.134C0.0291433 22.5432 -0.224502 21.4377 0.217192 20.6609L0.382071 20.371C0.822826 19.5959 0.994106 18.2928 0.762916 17.4543L0.00613245 14.7095V7.74166L1.61316 5.681C1.89271 5.32255 2.20711 4.69426 2.31554 4.27716L2.82372 2.32227Z" fill="#595959"/>
<path fill-rule="evenodd" clip-rule="evenodd" d="M0.00390625 7.74219H9.86547V14.71H0.00390625V7.74219Z" fill="#FF5656"/>
<path fill-rule="evenodd" clip-rule="evenodd" d="M8.93054 0H13.1569L13.6265 2.3226H8.46094L8.93054 0Z" fill="#80D25B"/>
<path fill-rule="evenodd" clip-rule="evenodd" d="M8.92919 2.32227H13.1556L13.6906 4.27716C13.8047 4.69403 14.1209 5.32195 14.4032 5.6879L15.9876 7.74166V14.7095L15.2455 17.4543C15.0195 18.29 15.189 19.5942 15.626 20.371L15.7891 20.6609C16.2252 21.436 15.9647 22.5428 15.2132 23.1283L14.435 23.7348C14.2471 23.8812 13.8846 23.9998 13.6259 23.9998H8.45889C8.19993 23.9998 7.83577 23.8788 7.64719 23.7307L6.8871 23.134C6.13461 22.5432 5.88097 21.4377 6.32266 20.6609L6.48754 20.371C6.92829 19.5959 7.09957 18.2928 6.86839 17.4543L6.1116 14.7095V7.74166L7.71863 5.681C7.99818 5.32255 8.31258 4.69426 8.42101 4.27716L8.92919 2.32227Z" fill="#ECECEC"/>
<path fill-rule="evenodd" clip-rule="evenodd" d="M6.10938 7.74219H15.9709V14.71H6.10938V7.74219Z" fill="#80D25B"/>
</svg>
