<svg width="22" height="24" viewBox="0 0 22 24" fill="none" xmlns="http://www.w3.org/2000/svg">
<path d="M1.55078 6.73967L4.64032 15.7325H17.232L20.3251 6.74593C20.3251 6.74593 17.6324 3.95276 15.833 3.36746C12.7027 2.34939 9.04295 2.43269 5.92331 3.47987C4.18345 4.06386 1.55129 6.7397 1.55129 6.7397L1.55078 6.73967Z" fill="#890000"/>
<path d="M1.55078 6.89983L4.64032 15.8926H17.232L20.3251 6.90609C20.3251 6.90609 17.6324 4.11292 15.833 3.52762C12.7027 2.50955 9.04295 2.59285 5.92331 3.64002C4.18345 4.22401 1.55129 6.89985 1.55129 6.89985L1.55078 6.89983Z" fill="url(#paint0_linear_1305_818)"/>
<g opacity="0.5">
<path d="M11.43 0.380133L11.1094 14.628L12.1004 14.7686L12.421 0.155327L11.43 0.380133Z" fill="black"/>
<path d="M11.4868 0.379657L10.7873 0.0986328L10.4375 15.1613L11.1662 14.6555L11.4868 0.379657Z" fill="black"/>
<path d="M10.7656 0.112409L11.5016 0.400459L12.4125 0.168615L11.8222 0L10.7656 0.112409Z" fill="black"/>
</g>
<path d="M11.43 0.380133L11.1094 14.628L12.1004 14.7686L12.421 0.155327L11.43 0.380133Z" fill="#F7D333"/>
<path d="M11.4868 0.37868L10.7873 0.0976562L10.4375 15.1604L11.1662 14.6545L11.4868 0.37868Z" fill="#EFB319"/>
<path d="M10.7656 0.112409L11.5016 0.400459L12.4125 0.168615L11.8222 0L10.7656 0.112409Z" fill="#FCEC3D"/>
<g opacity="0.5">
<path d="M10.2597 1.30192L10.9727 1.05447L10.1167 15.8162L9.24553 15.9607L10.2597 1.30192Z" fill="black"/>
<path d="M9.1786 1.13833L10.2606 1.28145L9.36947 15.9829L8.43138 14.8679L9.1786 1.13833Z" fill="black"/>
<path d="M9.18024 1.14487L10.2887 1.30562L11.0003 1.06231L10.0358 0.942988L9.18024 1.14487Z" fill="black"/>
</g>
<path d="M10.2636 1.30192L10.9766 1.05447L10.1206 15.8162L9.24943 15.9607L10.2636 1.30192Z" fill="#EFB319"/>
<path d="M9.1786 1.13735L10.2606 1.28047L9.36947 15.9819L8.43138 14.867L9.1786 1.13735Z" fill="#F7D333"/>
<path d="M9.18024 1.14487L10.2887 1.30562L11.0003 1.06231L10.0358 0.942988L9.18024 1.14487Z" fill="#FCEC3D"/>
<g opacity="0.5">
<path d="M7.50759 1.88241L7.87195 14.8788L9.00629 15.2412L8.53423 1.86738L7.4375 1.42383L7.50759 1.88241Z" fill="black"/>
<path d="M8.50173 1.86452L9.06115 1.55081L9.60644 15.6376L8.81859 15.3034L8.50173 1.86452Z" fill="black"/>
<path d="M7.42176 1.44405L8.50801 1.87148L9.05652 1.57549L8.17015 1.16865L7.42176 1.44405Z" fill="black"/>
</g>
<path d="M7.50759 1.88241L7.87195 14.8788L9.00629 15.2412L8.53423 1.86738L7.4375 1.42383L7.50759 1.88241Z" fill="#F7D333"/>
<path d="M8.50173 1.86452L9.06115 1.55081L9.60644 15.6376L8.81859 15.3034L8.50173 1.86452Z" fill="#EFB319"/>
<path d="M7.42176 1.44405L8.50801 1.87148L9.05652 1.57549L8.17015 1.16865L7.42176 1.44405Z" fill="#FCEC3D"/>
<g opacity="0.5">
<path d="M3.69249 8.74495L3.21188 2.01556L4.50657 1.49213L5.8467 12.7328L3.69249 8.74495Z" fill="black"/>
<path d="M4.40011 1.54415L4.83848 1.26064L5.98447 13.6607L4.62714 12.4883L4.40011 1.54415Z" fill="black"/>
<path d="M3.20401 2.0487L3.79526 1.41039L4.87862 1.27254L4.42228 1.74985L3.20401 2.0487Z" fill="black"/>
</g>
<path d="M3.69249 8.74495L3.21188 2.01556L4.50657 1.49213L5.8467 12.7328L3.69249 8.74495Z" fill="#F7D333"/>
<path d="M4.40011 1.54415L4.83848 1.26064L5.98447 13.6607L4.62714 12.4883L4.40011 1.54415Z" fill="#EFB319"/>
<path d="M3.20401 2.0487L3.79526 1.41039L4.87862 1.27254L4.42228 1.74985L3.20401 2.0487Z" fill="#FCEC3D"/>
<g opacity="0.5">
<path d="M3.62214 10.3831L1.06641 4.10383L2.13814 3.22949L6.9197 13.5626L3.62214 10.3831Z" fill="black"/>
<path d="M2.05469 3.30845L2.38445 2.91103L7.34219 14.4062L5.68216 13.6812L2.05469 3.30845Z" fill="black"/>
<path d="M1.14453 4.0322L1.43601 3.35774L2.31043 3.02051L2.13555 3.75117L1.14453 4.0322Z" fill="black"/>
</g>
<path d="M3.62214 10.3831L1.06641 4.10383L2.13814 3.22949L6.9197 13.5626L3.62214 10.3831Z" fill="#F7D333"/>
<path d="M2.05469 3.30845L2.38445 2.91103L7.34219 14.4062L5.68216 13.6812L2.05469 3.30845Z" fill="#EFB319"/>
<path d="M1.14453 4.0322L1.43601 3.35774L2.31043 3.02051L2.13555 3.75117L1.14453 4.0322Z" fill="#FCEC3D"/>
<g opacity="0.5">
<path d="M12.2891 0.859375L13.7845 13.6371L14.6252 13.4728L13.1425 1.11646L12.2891 0.859375Z" fill="black"/>
<path d="M13.1157 1.14469L13.9212 0.784626L15.3841 13.4508L14.6001 13.5572L13.1157 1.14469Z" fill="black"/>
<path d="M12.2942 0.887287L13.1767 1.14355L13.954 0.812394L13.0174 0.698222L12.2942 0.887287Z" fill="black"/>
</g>
<path d="M12.293 0.859375L13.7884 13.6371L14.6291 13.4728L13.1464 1.11646L12.293 0.859375Z" fill="#F7D333"/>
<path d="M13.1157 1.14469L13.9212 0.784626L15.3841 13.4508L14.6001 13.5572L13.1157 1.14469Z" fill="#EFB319"/>
<path d="M12.2942 0.887287L13.1767 1.14355L13.954 0.812394L13.0174 0.698222L12.2942 0.887287Z" fill="#FCEC3D"/>
<g opacity="0.5">
<path d="M15.3399 1.81152L14.2031 2.06444L14.5238 13.5021L15.7188 12.7152L15.3399 1.81152Z" fill="black"/>
<path d="M14.1998 2.0371L13.5586 1.78418L13.9667 13.9524L14.5496 13.6433L14.1998 2.0371Z" fill="black"/>
<path d="M13.5312 1.82611L14.5806 1.50293L15.3821 1.85421L14.2308 2.06498L13.5312 1.82611Z" fill="black"/>
</g>
<path d="M15.3399 1.8125L14.2031 2.06542L14.5238 13.5031L15.7188 12.7162L15.3399 1.8125Z" fill="#F7D333"/>
<path d="M14.1998 2.0371L13.5586 1.78418L13.9667 13.9524L14.5496 13.6433L14.1998 2.0371Z" fill="#EFB319"/>
<path d="M13.5312 1.82611L14.5806 1.50293L15.3821 1.85421L14.2308 2.06498L13.5312 1.82611Z" fill="#FCEC3D"/>
<g opacity="0.5">
<path d="M17.6295 1.33838L15.9389 14.2373L14.773 14.4902L16.6093 1.2259L17.7461 0.888672L17.6295 1.33838Z" fill="black"/>
<path d="M16.6406 1.22568L16.116 0.860352L14.1339 14.8272L14.9521 14.5695L16.6406 1.22568Z" fill="black"/>
<path d="M17.7578 0.909607L16.6331 1.23179L16.1175 0.885129L17.0412 0.564453L17.7578 0.909607Z" fill="black"/>
</g>
<path d="M17.6295 1.3374L15.9389 14.2363L14.773 14.4892L16.6093 1.22492L17.7461 0.887695L17.6295 1.3374Z" fill="#F7D333"/>
<path d="M16.6367 1.22471L16.1121 0.859375L14.13 14.8262L14.9482 14.5685L16.6367 1.22471Z" fill="#EFB319"/>
<path d="M17.7578 0.909607L16.6331 1.23179L16.1175 0.885129L17.0412 0.564453L17.7578 0.909607Z" fill="#FCEC3D"/>
<g opacity="0.5">
<path d="M15.0902 2.44926L16.0793 2.88868L17.3205 12.5197L15.9483 11.4728L15.0902 2.44926Z" fill="black"/>
<path d="M16.079 2.88905L16.6714 2.5626L17.8608 13.0352L17.0944 12.2989L16.079 2.88905Z" fill="black"/>
<path d="M15.0724 2.4925L16.0992 2.88903L16.7121 2.56093L16.2399 2.12011L15.6323 2.02906L15.0724 2.4925Z" fill="black"/>
</g>
<path d="M15.0902 2.44926L16.0793 2.88868L17.3205 12.5197L15.9483 11.4728L15.0902 2.44926Z" fill="#EFB319"/>
<path d="M16.079 2.88905L16.6714 2.5626L17.8608 13.0352L17.0944 12.2989L16.079 2.88905Z" fill="#F7D333"/>
<path d="M15.0724 2.4925L16.0992 2.88903L16.7121 2.56093L16.2399 2.12011L15.6323 2.02906L15.0724 2.4925Z" fill="#FCEC3D"/>
<g opacity="0.5">
<path d="M18.3693 10.0553L18.993 2.53846L17.7097 1.92431L16.1307 14.4685L18.3693 10.0553Z" fill="black"/>
<path d="M17.8179 1.98373L17.3857 1.65689L15.9762 15.5023L17.3582 14.2209L17.8179 1.98373Z" fill="black"/>
<path d="M18.9002 2.48477L18.424 1.84886L17.4865 1.75167L17.8672 2.48326L18.9002 2.48477Z" fill="black"/>
</g>
<path d="M18.3693 10.0553L18.993 2.53846L17.7097 1.92431L16.1307 14.4685L18.3693 10.0553Z" fill="#F7D333"/>
<path d="M17.8179 1.98373L17.3857 1.65689L15.9762 15.5023L17.3582 14.2209L17.8179 1.98373Z" fill="#EFB319"/>
<path d="M18.9002 2.48477L18.424 1.84886L17.4865 1.75167L17.8672 2.48326L18.9002 2.48477Z" fill="#FCEC3D"/>
<g opacity="0.5">
<path d="M18.7568 10.344L21.3125 4.06477L20.2408 3.19043L15.4592 13.5235L18.7568 10.344Z" fill="black"/>
<path d="M20.3242 3.26939L19.9945 2.87197L15.0367 14.3672L16.6967 13.6422L20.3242 3.26939Z" fill="black"/>
<path d="M21.2344 3.99313L20.9429 3.31867L20.0685 2.98145L20.2434 3.71211L21.2344 3.99313Z" fill="black"/>
</g>
<path d="M18.7568 10.344L21.3125 4.06477L20.2408 3.19043L15.4592 13.5235L18.7568 10.344Z" fill="#F7D333"/>
<path d="M20.3242 3.26939L19.9945 2.87197L15.0367 14.3672L16.6967 13.6422L20.3242 3.26939Z" fill="#EFB319"/>
<path d="M21.2344 3.99313L20.9429 3.31867L20.0685 2.98145L20.2434 3.71211L21.2344 3.99313Z" fill="#FCEC3D"/>
<g opacity="0.5">
<path d="M17.9993 14.5978L18.0517 7.05707L16.7253 6.53495L16.1012 19.1568L17.9993 14.5978Z" fill="black"/>
<path d="M16.8338 6.58708L16.3779 6.29157L16.0214 20.1992L17.3025 18.8239L16.8338 6.58708Z" fill="black"/>
<path d="M17.9544 7.00994L17.4312 6.40927L16.4889 6.37837L16.924 7.08119L17.9544 7.00994Z" fill="black"/>
</g>
<path d="M17.9993 14.5978L18.0517 7.05707L16.7253 6.53495L16.1012 19.1568L17.9993 14.5978Z" fill="#F7D333"/>
<path d="M16.8338 6.58708L16.3779 6.29157L16.0214 20.1992L17.3025 18.8239L16.8338 6.58708Z" fill="#EFB319"/>
<path d="M17.9544 7.00994L17.4312 6.40927L16.4889 6.37837L16.924 7.08119L17.9544 7.00994Z" fill="#FCEC3D"/>
<g opacity="0.5">
<path d="M5.97208 1.6167L7.6627 14.5156L8.82858 14.7685L6.99222 1.50422L5.85547 1.16699L5.97208 1.6167Z" fill="black"/>
<path d="M6.96094 1.504L7.48559 1.13867L9.46769 15.1055L8.6495 14.8478L6.96094 1.504Z" fill="black"/>
<path d="M5.84375 1.18793L6.96842 1.51011L7.48403 1.16345L6.56038 0.842773L5.84375 1.18793Z" fill="black"/>
</g>
<path d="M5.97208 1.61572L7.6627 14.5146L8.82858 14.7675L6.99222 1.50325L5.85547 1.16602L5.97208 1.61572Z" fill="#F7D333"/>
<path d="M6.96094 1.50303L7.48559 1.1377L9.46769 15.1045L8.6495 14.8468L6.96094 1.50303Z" fill="#EFB319"/>
<path d="M5.83984 1.18793L6.96452 1.51011L7.48012 1.16345L6.55647 0.842773L5.83984 1.18793Z" fill="#FCEC3D"/>
<g opacity="0.5">
<path d="M5.26562 2.39171L6.21369 2.90836L6.62591 12.6055L5.34808 11.4529L5.26562 2.39171Z" fill="black"/>
<path d="M6.21484 2.90949L6.83315 2.63129L7.12169 13.1631L6.42095 12.3682L6.21484 2.90949Z" fill="black"/>
<path d="M5.24609 2.43422L6.23537 2.91113L6.87429 2.63294L6.44146 2.15602L5.84377 2.01692L5.24609 2.43422Z" fill="black"/>
</g>
<path d="M5.26562 2.39171L6.21369 2.90836L6.62591 12.6055L5.34808 11.4529L5.26562 2.39171Z" fill="#EFB319"/>
<path d="M6.21484 2.90949L6.83315 2.63129L7.12169 13.1631L6.42095 12.3682L6.21484 2.90949Z" fill="#F7D333"/>
<path d="M5.24609 2.43422L6.23537 2.91113L6.87429 2.63294L6.44146 2.15602L5.84377 2.01692L5.24609 2.43422Z" fill="#FCEC3D"/>
<g opacity="0.5">
<path d="M5.64167 11.5354L3.08594 5.25617L4.15768 4.38184L8.93923 14.7149L5.64167 11.5354Z" fill="black"/>
<path d="M4.07422 4.4608L4.40398 4.06338L9.36172 15.5586L7.70169 14.8336L4.07422 4.4608Z" fill="black"/>
<path d="M3.16406 5.18454L3.45554 4.51008L4.32997 4.17285L4.15508 4.90352L3.16406 5.18454Z" fill="black"/>
</g>
<g opacity="0.5">
<path d="M8.27734 7.50293L9.36577 7.89645L10.1367 16.2478L8.59483 15.7231L8.27734 7.50293Z" fill="black"/>
<path d="M9.36328 7.85241L9.99819 7.63379L10.8599 16.1601L10.1342 16.335L9.36328 7.85241Z" fill="black"/>
<path d="M8.28125 7.50532L9.33948 7.92272L10.0289 7.59808L9.115 7.27344L8.28125 7.50532Z" fill="black"/>
</g>
<path d="M8.27734 7.50293L9.36577 7.89645L10.1367 16.2478L8.59483 15.7231L8.27734 7.50293Z" fill="#F7D333"/>
<path d="M9.36719 7.85241L10.0021 7.63379L10.8638 16.1601L10.1381 16.335L9.36719 7.85241Z" fill="#EFB319"/>
<path d="M8.28125 7.5063L9.33948 7.9237L10.0289 7.59906L9.115 7.27441L8.28125 7.5063Z" fill="#FCEC3D"/>
<path d="M5.64167 11.5354L3.08594 5.25617L4.15768 4.38184L8.93923 14.7149L5.64167 11.5354Z" fill="#F7D333"/>
<path d="M4.07422 4.4608L4.40398 4.06338L9.36172 15.5586L7.70169 14.8336L4.07422 4.4608Z" fill="#EFB319"/>
<path d="M3.16406 5.18454L3.45554 4.51008L4.32997 4.17285L4.15508 4.90352L3.16406 5.18454Z" fill="#FCEC3D"/>
<g opacity="0.5">
<path d="M11.8203 4.17964L11.8657 14.6299L12.818 14.455L12.5913 4.39828L11.8203 4.17964Z" fill="black"/>
<path d="M12.5664 4.37622L13.1161 4.14854L13.3827 13.93L12.8224 14.4775L12.5664 4.37622Z" fill="black"/>
<path d="M11.8125 4.1511L12.5821 4.39844L13.1593 4.1511L12.6463 3.811L11.8125 4.1511Z" fill="black"/>
</g>
<path d="M11.8203 4.17964L11.8657 14.6299L12.818 14.455L12.5913 4.39828L11.8203 4.17964Z" fill="#EFB319"/>
<path d="M12.5664 4.37622L13.1161 4.14854L13.3827 13.93L12.8224 14.4775L12.5664 4.37622Z" fill="#F7D333"/>
<path d="M11.8125 4.1511L12.5821 4.39844L13.1593 4.1511L12.6463 3.811L11.8125 4.1511Z" fill="#FCEC3D"/>
<g opacity="0.5">
<path d="M14.5104 13.891L15.2933 6.38801L14.0233 5.74869L12.1787 18.2591L14.5104 13.891Z" fill="black"/>
<path d="M14.126 5.81116L13.7008 5.47587L11.998 19.2906L13.4069 18.0367L14.126 5.81116Z" fill="black"/>
<path d="M15.2013 6.33313L14.7387 5.68796L13.8035 5.57231L14.1686 6.31125L15.2013 6.33313Z" fill="black"/>
</g>
<g opacity="0.5">
<path d="M11.5175 7.77848L12.2305 7.53103L11.3745 22.2927L10.5033 22.4373L11.5175 7.77848Z" fill="black"/>
<path d="M10.4364 7.61489L11.5184 7.75801L10.6273 22.4594L9.6892 21.3445L10.4364 7.61489Z" fill="black"/>
<path d="M10.438 7.62144L11.5465 7.78218L12.2581 7.53888L11.2936 7.41955L10.438 7.62144Z" fill="black"/>
</g>
<path d="M11.5175 7.77848L12.2305 7.53103L11.3745 22.2927L10.5033 22.4373L11.5175 7.77848Z" fill="#EFB319"/>
<path d="M10.4364 7.61392L11.5184 7.75703L10.6273 22.4584L9.6892 21.3435L10.4364 7.61392Z" fill="#F7D333"/>
<path d="M10.438 7.62144L11.5465 7.78218L12.2581 7.53888L11.2936 7.41955L10.438 7.62144Z" fill="#FCEC3D"/>
<path d="M14.5104 13.891L15.2933 6.38801L14.0233 5.74869L12.1787 18.2591L14.5104 13.891Z" fill="#F7D333"/>
<path d="M14.126 5.81116L13.7008 5.47587L11.998 19.2906L13.4069 18.0367L14.126 5.81116Z" fill="#EFB319"/>
<path d="M15.2013 6.33313L14.7387 5.68796L13.8035 5.57231L14.1686 6.31125L15.2013 6.33313Z" fill="#FCEC3D"/>
<path d="M18.9182 7.45625C18.9182 7.45625 17.8928 7.59547 17.7796 7.91238C17.3078 9.23399 16.6946 10.6422 15.6377 11.6266C14.3134 12.8603 12.6843 13.8119 10.7195 14.0526C8.78602 14.2896 6.71458 13.004 5.62978 11.2758C5.0946 10.4231 5.13155 9.37275 4.65758 8.49887C4.48436 8.17946 3.12891 7.79186 3.12891 7.79186L3.58121 10.8144L3.29527 8.75425C3.29527 8.75425 4.11504 8.94117 4.28826 9.26052C4.76221 10.1344 4.8883 11.425 5.62957 12.238C7.01303 13.755 8.50893 14.3938 10.2202 14.4585C12.1524 14.5314 14.125 13.5635 15.5958 12.3533C16.6646 11.4738 17.3075 10.1963 17.7794 8.87458C17.8824 8.58588 18.708 8.45137 18.8608 8.42847L18.918 7.45605L18.9182 7.45625Z" fill="url(#paint1_linear_1305_818)"/>
<path d="M1.56641 6.82812L1.89617 8.59662L3.3801 9.19275L3.13278 7.80177L1.56641 6.82812Z" fill="url(#paint2_linear_1305_818)"/>
<path d="M3.46785 8.91563L5.42019 24.0008L4.34189 23.1914L1.71875 7.73535L3.46785 8.91563Z" fill="url(#paint3_linear_1305_818)"/>
<path d="M18.8992 7.43431L18.8555 8.44597L20.2254 7.68719L20.342 6.83008L18.8992 7.43431Z" fill="#A7A7A7"/>
<path d="M5.39928 23.9304C5.39928 23.9304 9.14612 23.086 11.0538 23.0791C13.0575 23.0719 16.9997 23.9304 16.9997 23.9304L18.049 22.6939L18.9234 8.41797C18.9234 8.41797 17.8949 8.55751 17.7817 8.87441C17.3099 10.196 16.6695 11.4728 15.6007 12.3522C14.1298 13.5625 12.1587 14.5308 10.2264 14.4578C8.51516 14.3932 7.01594 13.7569 5.63248 12.2398C4.89117 11.427 4.76565 10.1349 4.29175 9.26104C4.11856 8.9417 3.30078 8.75521 3.30078 8.75521L5.39928 23.9304Z" fill="#C41C23"/>
<path d="M18.0508 22.6931L20.2074 7.68652L18.8671 8.43111L18.0508 22.6931Z" fill="#AA0000"/>
<path opacity="0.48161" d="M16.8726 23.5918C16.3632 23.4815 12.9907 22.766 11.0477 22.773C9.32209 22.7792 6.45986 23.3834 5.66179 23.5587L3.67578 9.20072C3.85046 9.28083 4.00307 9.39484 4.00636 9.40091C4.4317 10.1852 4.55052 11.5193 5.38974 12.4396C6.81904 14.0069 8.42408 14.6935 10.2092 14.7609C12.2591 14.8383 14.2869 13.8277 15.8004 12.5823C16.9366 11.6474 17.5949 10.3171 18.075 8.9723C18.0577 9.02085 18.071 8.97796 18.1509 8.93694C18.2309 8.89592 18.3534 8.85264 18.4763 8.81887C18.5138 8.80857 18.5421 8.80447 18.5785 8.79576L17.7348 22.5757L16.8726 23.5918Z" fill="url(#paint4_linear_1305_818)"/>
<defs>
<linearGradient id="paint0_linear_1305_818" x1="8.88771" y1="5.97173" x2="14.7663" y2="18.9735" gradientUnits="userSpaceOnUse">
<stop stop-color="#CCCCCC"/>
<stop offset="1" stop-color="#808080"/>
</linearGradient>
<linearGradient id="paint1_linear_1305_818" x1="-1.86253" y1="10.9599" x2="20.9144" y2="10.9599" gradientUnits="userSpaceOnUse">
<stop stop-color="#CCCCCC"/>
<stop offset="0.5" stop-color="white" stop-opacity="0.98431"/>
<stop offset="1" stop-color="#CCCCCC" stop-opacity="0.99043"/>
</linearGradient>
<linearGradient id="paint2_linear_1305_818" x1="1.72973" y1="9.29197" x2="3.42381" y2="8.1217" gradientUnits="userSpaceOnUse">
<stop stop-color="#CCCCCC"/>
<stop offset="1" stop-color="#999999"/>
</linearGradient>
<linearGradient id="paint3_linear_1305_818" x1="0.786071" y1="21.2603" x2="4.0773" y2="17.1514" gradientUnits="userSpaceOnUse">
<stop stop-color="#800000"/>
<stop offset="1" stop-color="#AA0000"/>
</linearGradient>
<linearGradient id="paint4_linear_1305_818" x1="3.67555" y1="16.1932" x2="18.58" y2="16.1932" gradientUnits="userSpaceOnUse">
<stop stop-color="#800000"/>
<stop offset="0.5" stop-color="#800000" stop-opacity="0"/>
<stop offset="1" stop-color="#800000" stop-opacity="0.99522"/>
</linearGradient>
</defs>
</svg>
